<svg width="1164" height="1000" viewBox="0 0 1164 1000" fill="none" xmlns="http://www.w3.org/2000/svg">
<g clip-path="url(#clip0)">
<path d="M93.4186 276.281C145.012 276.281 186.837 234.456 186.837 182.862C186.837 131.269 145.012 89.4438 93.4186 89.4438C41.8249 89.4438 0 131.269 0 182.862C0 234.456 41.8249 276.281 93.4186 276.281Z" fill="#FF6584"/>
<path d="M1083.82 783.871C1083.39 799.773 1080.73 815.536 1075.9 830.694C1075.79 831.046 1075.68 831.392 1075.56 831.744H1046.03C1046.07 831.429 1046.1 831.077 1046.13 830.694C1048.1 808.06 1059.45 670.3 1045.88 646.742C1047.06 648.653 1086.1 711.951 1083.82 783.871Z" fill="#E6E6E6"/>
<path d="M1081.6 830.694C1081.35 831.046 1081.1 831.398 1080.83 831.745H1058.68C1058.85 831.445 1059.04 831.094 1059.27 830.694C1062.93 824.09 1073.76 804.343 1083.82 783.872C1094.62 761.872 1104.53 739.038 1103.7 730.774C1103.96 732.638 1111.43 789.458 1081.6 830.694Z" fill="#E6E6E6"/>
<path d="M1163.63 829.731H314.546V832.509H1163.63V829.731Z" fill="#E6E6E6"/>
<path d="M858.041 916.463L862.166 882.434L978.688 852.53L965.283 812.314C974.621 785.531 991.015 772.401 1020.97 785.504L1072.49 817.509C1077.49 820.619 1081.57 825.018 1084.3 830.245C1087.02 835.472 1088.29 841.336 1087.97 847.221V847.221C1087.66 853.131 1085.75 858.845 1082.46 863.762C1079.17 868.678 1074.61 872.615 1069.26 875.155C1011.59 902.494 938.075 912.955 858.041 916.463Z" fill="#FFB8B8"/>
<path d="M865.259 926.775L829.168 921.619L795.411 928.508C793.343 928.93 791.208 928.898 789.153 928.414C787.099 927.931 785.174 927.006 783.511 925.706C781.849 924.405 780.489 922.759 779.525 920.881C778.561 919.003 778.016 916.938 777.928 914.829V914.829C777.83 912.471 778.306 910.123 779.315 907.989C780.324 905.855 781.837 903.998 783.722 902.577L836.619 862.723C841.156 859.305 846.762 857.616 852.432 857.959C858.102 858.302 863.463 860.655 867.555 864.595L880.727 877.279C871.301 883.126 864.292 891.9 860.103 904.089C869.162 909.069 870.881 916.631 865.259 926.775Z" fill="#2F2E41"/>
<path d="M899.73 569.512C918.164 569.512 933.107 554.568 933.107 536.134C933.107 517.7 918.164 502.757 899.73 502.757C881.296 502.757 866.352 517.7 866.352 536.134C866.352 554.568 881.296 569.512 899.73 569.512Z" fill="#FFB8B8"/>
<path d="M951.878 601.955L877.118 633.406C883.194 602.899 886.222 575.108 877.118 558.13L925.067 552.459C922.687 565.506 934.819 582.979 951.878 601.955Z" fill="#FFB8B8"/>
<path d="M825.044 915.432L797.202 913.369C780.146 842.245 771.413 775.017 775.225 713.664C775.763 704.707 779.75 696.307 786.349 690.226C792.948 684.146 801.645 680.857 810.616 681.051C819.236 681.247 827.474 684.649 833.72 690.593L869.724 724.855C885.779 740.016 898.243 758.573 906.204 779.171C916.401 805.877 912.74 820.849 888.398 818.306C873.187 816.611 859.197 809.173 849.285 797.512L822.981 766.943L825.044 915.432Z" fill="#FFB8B8"/>
<path d="M803.483 999.95C799.834 999.712 796.288 998.637 793.122 996.808C789.955 994.979 787.251 992.446 785.221 989.404C783.191 986.362 781.888 982.894 781.414 979.268C780.94 975.642 781.307 971.955 782.487 968.494L787.921 952.554L792.046 912.339C798.4 899.373 807.398 901.313 817.826 911.307C824.455 910.657 825.878 904.028 825.044 894.809L845.948 922.949C847.737 925.357 848.848 928.201 849.164 931.185C849.48 934.168 848.99 937.182 847.746 939.912L826.707 986.061C824.702 990.459 821.407 994.143 817.259 996.623C813.111 999.104 808.306 1000.26 803.483 999.95V999.95Z" fill="#2F2E41"/>
<path d="M1066.85 813.861C1028.7 835.516 1016.74 836.144 978.688 851.499L945.691 832.938C906.938 847.268 879.753 827.624 850.307 798.394C869.577 766.299 861.054 724.592 872.993 725.18L1015.81 770.036L1022 785.504L1066.85 813.861Z" fill="#2F2E41"/>
<path d="M1020.97 780.348C970.539 802.175 916.243 779.066 869.9 728.274L839.214 604.345C838.851 602.98 838.772 601.555 838.981 600.158C839.19 598.761 839.683 597.422 840.429 596.223C841.176 595.024 842.16 593.99 843.321 593.186C844.482 592.382 845.796 591.824 847.181 591.547L882.789 584.426L900.319 612.267L935.379 581.332L972.612 593.505C977.563 595.123 981.981 598.056 985.394 601.99C988.807 605.925 991.087 610.712 991.991 615.842L1020.97 780.348Z" fill="#0366D6"/>
<path opacity="0.2" d="M940.868 885.41C938.147 884.373 935.714 882.698 933.773 880.527C931.832 878.355 930.441 875.75 929.715 872.93C928.99 870.109 928.951 867.156 929.603 864.317C930.255 861.479 931.578 858.838 933.461 856.617L957.034 828.813L973.532 838.094L965.037 872.731C964.422 875.237 963.281 877.584 961.691 879.616C960.1 881.648 958.096 883.319 955.811 884.518C953.525 885.717 951.011 886.417 948.435 886.57C945.859 886.724 943.28 886.328 940.868 885.41Z" fill="black"/>
<path d="M940.868 881.285C938.147 880.248 935.714 878.573 933.773 876.402C931.832 874.23 930.441 871.625 929.715 868.804C928.99 865.984 928.951 863.031 929.603 860.192C930.255 857.354 931.578 854.713 933.461 852.492L957.034 824.688L973.532 833.969L965.036 868.606C964.422 871.112 963.281 873.459 961.691 875.491C960.1 877.523 958.096 879.194 955.811 880.393C953.525 881.592 951.011 882.291 948.435 882.445C945.859 882.599 943.28 882.203 940.868 881.285V881.285Z" fill="#FFB8B8"/>
<path d="M977.657 842.219L952.909 825.72L989 729.821L975.595 594.737L987.823 602.38C994.386 606.482 1000.05 611.874 1004.46 618.23C1008.88 624.585 1011.96 631.771 1013.51 639.353L1033.34 736.008C1024.66 780.559 1010.21 819.758 977.657 842.219Z" fill="#0366D6"/>
<path opacity="0.2" d="M962.706 689.09L975.08 750.96L964.902 787.145L962.706 689.09Z" fill="black"/>
<path d="M867.087 533.272C867.087 533.272 847.853 470.324 906.638 483.526C915.756 485.574 923.633 490.874 929.899 497.807C930.461 498.413 931.148 498.889 931.913 499.201C932.678 499.514 933.502 499.655 934.327 499.616C943.718 499.616 949.518 533.172 930.737 547.929C930.737 547.929 934.57 528.072 927.604 521.305C926.351 520.16 925.303 518.81 924.503 517.313C919.97 508.168 904.73 505.166 894.219 505.945C888.853 506.342 888.384 515.698 882.444 514.391C868.927 511.418 864.613 527.075 867.087 533.272Z" fill="#2F2E41"/>
<path d="M926.254 626.701L925.866 629.551L923.464 647.138L919.53 675.938L918.545 683.148C918.47 683.699 918.198 684.203 917.779 684.569C917.361 684.934 916.824 685.135 916.269 685.135H890.036C889.481 685.135 888.945 684.935 888.527 684.571C888.109 684.207 887.836 683.703 887.76 683.154L886.758 675.938L882.757 647.138L880.313 629.539L879.92 626.707C879.875 626.382 879.9 626.05 879.993 625.735C880.087 625.421 880.247 625.13 880.462 624.882C880.678 624.634 880.944 624.436 881.243 624.299C881.542 624.163 881.867 624.093 882.195 624.093H923.978C924.306 624.093 924.63 624.163 924.929 624.299C925.227 624.435 925.493 624.633 925.709 624.88C925.924 625.127 926.085 625.417 926.179 625.732C926.273 626.046 926.299 626.376 926.254 626.701V626.701Z" fill="#E6E6E6"/>
<path d="M884.963 616.463H921.346C921.647 616.463 921.946 616.522 922.225 616.638C922.504 616.753 922.757 616.922 922.97 617.136C923.184 617.349 923.353 617.602 923.468 617.881C923.584 618.16 923.643 618.459 923.643 618.76V621.796C923.643 622.405 923.401 622.989 922.97 623.42C922.539 623.851 921.955 624.093 921.346 624.093H884.963C884.354 624.093 883.77 623.851 883.339 623.42C882.908 622.989 882.666 622.405 882.666 621.796V618.76C882.666 618.459 882.725 618.16 882.841 617.881C882.956 617.602 883.125 617.349 883.339 617.136C883.552 616.922 883.805 616.753 884.084 616.638C884.363 616.522 884.662 616.463 884.963 616.463V616.463Z" fill="#3F3D56"/>
<path d="M929.541 627.908C912.002 629.823 894.307 629.823 876.768 627.908C876.466 627.908 876.167 627.849 875.888 627.734C875.61 627.618 875.356 627.449 875.143 627.236C874.93 627.022 874.761 626.769 874.645 626.49C874.53 626.212 874.47 625.913 874.47 625.611V622.576C874.47 622.274 874.53 621.975 874.645 621.696C874.761 621.418 874.93 621.165 875.143 620.951C875.356 620.738 875.61 620.569 875.888 620.453C876.167 620.338 876.466 620.278 876.768 620.278C894.293 622.433 912.016 622.433 929.541 620.278C930.15 620.278 930.735 620.52 931.166 620.951C931.596 621.382 931.838 621.966 931.838 622.576V625.611C931.838 626.22 931.596 626.805 931.166 627.236C930.735 627.666 930.15 627.908 929.541 627.908V627.908Z" fill="#3F3D56"/>
<path d="M902.089 663.166C907.566 663.166 912.006 658.726 912.006 653.25C912.006 647.773 907.566 643.333 902.089 643.333C896.613 643.333 892.173 647.773 892.173 653.25C892.173 658.726 896.613 663.166 902.089 663.166Z" fill="white"/>
<path d="M927.583 674.112C927.884 677.009 927.486 679.936 926.422 682.647C925.359 685.358 923.66 687.774 921.47 689.693C919.279 691.612 916.66 692.978 913.833 693.675C911.005 694.373 908.051 694.382 905.22 693.702L869.776 685.193L870.623 666.282L905.371 658.254C907.886 657.673 910.495 657.633 913.026 658.137C915.557 658.64 917.952 659.676 920.052 661.176C922.152 662.675 923.91 664.604 925.208 666.835C926.506 669.065 927.316 671.545 927.583 674.112V674.112Z" fill="#FFB8B8"/>
<path d="M879.696 688.574L784.042 690.965C780.589 691.051 777.159 690.384 773.99 689.009C770.822 687.634 767.991 685.584 765.696 683.004C763.4 680.423 761.695 677.372 760.699 674.065C759.703 670.758 759.44 667.273 759.928 663.854V663.854C760.694 658.496 763.265 653.561 767.217 649.864L812.254 607.732C820.607 599.918 831.015 594.649 842.257 592.541L858.041 589.581L867.322 659.701L813.701 653.514L876.602 660.732L879.696 688.574Z" fill="#0366D6"/>
<path d="M753.68 894.332H509.481C507.309 894.332 505.227 893.47 503.691 891.934C502.156 890.398 501.293 888.316 501.293 886.144V886.144C589.815 875.856 676.674 875.856 761.868 886.144C761.868 888.316 761.006 890.398 759.47 891.934C757.935 893.47 755.852 894.332 753.68 894.332Z" fill="#2F2E41"/>
<path d="M761.868 886.626L501.293 886.144L531.493 835.329L531.637 835.088V723.099C531.637 721.74 531.905 720.393 532.425 719.138C532.945 717.882 533.707 716.741 534.669 715.779C535.63 714.818 536.771 714.056 538.027 713.536C539.283 713.016 540.629 712.748 541.988 712.748H719.728C721.088 712.748 722.434 713.016 723.69 713.536C724.945 714.056 726.087 714.818 727.048 715.779C728.009 716.741 728.771 717.882 729.291 719.138C729.812 720.393 730.079 721.74 730.079 723.099V835.859L761.868 886.626Z" fill="#3F3D56"/>
<path d="M541.752 719.973C540.858 719.974 540.001 720.33 539.369 720.962C538.737 721.594 538.381 722.451 538.38 723.345V825.456C538.381 826.349 538.737 827.206 539.369 827.839C540.001 828.471 540.858 828.826 541.752 828.827H721.409C722.303 828.826 723.16 828.471 723.792 827.838C724.424 827.206 724.78 826.349 724.781 825.456V723.345C724.78 722.451 724.424 721.594 723.792 720.962C723.16 720.33 722.303 719.974 721.409 719.973L541.752 719.973Z" fill="white"/>
<path d="M542.933 842.313C542.657 842.314 542.386 842.393 542.154 842.542C541.921 842.691 541.736 842.904 541.62 843.154L532.315 863.384C532.213 863.604 532.169 863.846 532.186 864.088C532.202 864.33 532.28 864.563 532.41 864.767C532.541 864.971 532.721 865.139 532.934 865.256C533.146 865.372 533.385 865.433 533.627 865.433H729.317C729.563 865.433 729.805 865.37 730.02 865.25C730.235 865.13 730.416 864.957 730.546 864.748C730.675 864.538 730.749 864.299 730.76 864.053C730.771 863.807 730.719 863.562 730.609 863.342L720.494 843.112C720.375 842.872 720.19 842.669 719.962 842.528C719.734 842.387 719.47 842.313 719.202 842.314L542.933 842.313Z" fill="#2F2E41"/>
<path d="M630.858 718.287C632.055 718.287 633.026 717.317 633.026 716.12C633.026 714.923 632.055 713.952 630.858 713.952C629.661 713.952 628.691 714.923 628.691 716.12C628.691 717.317 629.661 718.287 630.858 718.287Z" fill="white"/>
<path d="M611.624 869.286C611.306 869.287 610.997 869.391 610.745 869.585C610.493 869.778 610.311 870.049 610.228 870.355L607.894 879.025C607.837 879.239 607.829 879.464 607.872 879.681C607.915 879.899 608.008 880.104 608.142 880.28C608.277 880.456 608.451 880.598 608.65 880.697C608.849 880.795 609.068 880.846 609.289 880.846H653.68C653.911 880.846 654.138 880.791 654.343 880.685C654.547 880.58 654.724 880.427 654.857 880.239C654.991 880.051 655.078 879.834 655.11 879.606C655.143 879.378 655.121 879.146 655.045 878.928L652.044 870.258C651.946 869.974 651.762 869.728 651.517 869.554C651.272 869.38 650.979 869.286 650.679 869.286H611.624Z" fill="#2F2E41"/>
<path d="M730.079 833.402V835.33H531.493L531.642 835.088V833.402H730.079Z" fill="#2F2E41"/>
<path d="M447.353 769.145C447.899 789.527 451.313 809.73 457.495 829.159C457.636 829.61 457.784 830.054 457.932 830.505H495.779C495.738 830.101 495.698 829.65 495.658 829.159C493.134 800.148 478.585 623.58 495.981 593.385C494.46 595.834 444.419 676.965 447.353 769.145Z" fill="#E6E6E6"/>
<path d="M450.193 829.159C450.509 829.61 450.839 830.061 451.176 830.505H479.567C479.352 830.121 479.103 829.671 478.814 829.159C474.123 820.693 460.24 795.384 447.353 769.146C433.504 740.949 420.799 711.683 421.869 701.09C421.539 703.479 411.956 776.306 450.193 829.159Z" fill="#E6E6E6"/>
<path d="M514.228 217.117L529.615 204.811C517.662 203.492 512.75 210.011 510.74 215.171C501.402 211.293 491.235 216.375 491.235 216.375L522.022 227.552C520.469 223.403 517.765 219.784 514.228 217.117V217.117Z" fill="#3F3D56"/>
<path d="M977.674 153.77L993.061 141.463C981.107 140.145 976.196 146.664 974.186 151.824C964.847 147.946 954.681 153.028 954.681 153.028L985.468 164.205C983.915 160.056 981.211 156.437 977.674 153.77V153.77Z" fill="#3F3D56"/>
<path d="M889.07 317.086L904.457 304.779C892.503 303.46 887.592 309.98 885.582 315.14C876.243 311.262 866.077 316.344 866.077 316.344L896.864 327.521C895.311 323.372 892.607 319.752 889.07 317.086V317.086Z" fill="#3F3D56"/>
<path d="M285.059 559.057C360.571 545.443 399.266 409.504 371.486 255.429C343.707 101.355 259.973 -12.5106 184.462 1.104C108.95 14.7186 70.2549 150.657 98.0341 304.732C125.813 458.807 209.547 572.672 285.059 559.057Z" fill="#E6E6E6"/>
<path d="M212.007 227.022C224.227 260.251 235.101 293.932 244.63 328.067C254.141 362.169 262.276 396.615 269.036 431.406C275.796 466.185 281.155 501.197 285.114 536.443C289.053 571.626 291.584 606.93 292.707 642.353C293.823 677.739 293.515 713.131 291.782 748.53C291.569 752.867 291.334 757.202 291.078 761.537C290.817 765.977 297.724 765.962 297.984 761.537C300.072 726.026 300.726 690.472 299.949 654.873C299.167 619.479 296.969 584.153 293.355 548.896C289.733 513.537 284.714 478.356 278.3 443.354C271.881 408.367 264.067 373.676 254.857 339.279C245.652 304.92 235.069 270.971 223.106 237.432C221.647 233.342 220.167 229.26 218.666 225.186C217.145 221.049 210.468 222.837 212.007 227.022V227.022Z" fill="#3F3D56"/>
<path d="M259.595 357.738L290.192 289.799L298.816 270.65C299.252 269.853 299.366 268.92 299.135 268.042C298.905 267.164 298.348 266.407 297.578 265.926C296.785 265.471 295.845 265.345 294.961 265.577C294.077 265.809 293.32 266.379 292.853 267.165L262.255 335.103L253.631 354.252C253.196 355.049 253.082 355.982 253.312 356.86C253.543 357.739 254.1 358.496 254.87 358.976C255.663 359.432 256.602 359.557 257.486 359.325C258.37 359.093 259.128 358.523 259.595 357.738H259.595Z" fill="#3F3D56"/>
<path d="M266.356 404.159L196.587 378L176.923 370.628C176.04 370.392 175.1 370.513 174.305 370.964C173.511 371.415 172.925 372.161 172.675 373.04C172.452 373.922 172.578 374.857 173.027 375.648C173.477 376.44 174.215 377.027 175.087 377.287L244.855 403.446L264.52 410.818C265.402 411.054 266.343 410.933 267.137 410.482C267.932 410.031 268.517 409.286 268.767 408.407C268.991 407.524 268.865 406.589 268.415 405.798C267.966 405.006 267.228 404.419 266.356 404.159V404.159Z" fill="#3F3D56"/>
<path d="M212.026 774.715C212.026 774.715 296.053 747.09 374.325 774.715Z" fill="#E6E6E6"/>
<path d="M588.012 761.626C604.662 761.453 621.311 761.155 637.961 760.929C643.511 760.853 649.062 760.787 654.613 760.73C659.396 760.681 659.408 753.243 654.613 753.293C637.963 753.467 621.314 753.764 604.664 753.99C599.113 754.066 593.563 754.132 588.012 754.189C583.229 754.239 583.217 761.676 588.012 761.626Z" fill="#0366D6"/>
<path d="M588.012 778.98L655.307 778.282L674.446 778.084C679.229 778.035 679.241 770.597 674.446 770.647L607.151 771.344L588.012 771.542C583.229 771.592 583.217 779.029 588.012 778.98Z" fill="#0366D6"/>
<path d="M588.012 796.334L655.307 795.636L674.446 795.438C679.229 795.388 679.241 787.951 674.446 788.001L607.151 788.698L588.012 788.896C583.229 788.946 583.217 796.383 588.012 796.334Z" fill="#0366D6"/>
</g>
<defs>
<clipPath id="clip0">
<rect width="1163.63" height="1000" fill="white"/>
</clipPath>
</defs>
</svg>
