<?xml version="1.0" standalone="no"?>
<!DOCTYPE svg PUBLIC "-//W3C//DTD SVG 20010904//EN"
 "http://www.w3.org/TR/2001/REC-SVG-20010904/DTD/svg10.dtd">
<svg version="1.0" xmlns="http://www.w3.org/2000/svg"
 width="1000.000000pt" height="1000.000000pt" viewBox="0 0 1000.000000 1000.000000"
 preserveAspectRatio="xMidYMid meet">
<metadata>
Created by potrace 1.14, written by Peter Selinger 2001-2017
</metadata>
<g transform="translate(0.000000,1000.000000) scale(0.100000,-0.100000)"
fill="#000000" stroke="none">
<path d="M4688 9995 c-2 -1 -48 -6 -103 -9 -55 -4 -111 -9 -125 -11 -14 -2
-52 -7 -85 -10 -62 -6 -109 -13 -160 -21 -16 -3 -41 -7 -55 -9 -53 -8 -277
-52 -350 -70 -8 -2 -37 -8 -65 -15 -44 -10 -221 -61 -325 -93 -19 -6 -38 -11
-42 -11 -3 -1 -10 -4 -14 -8 -4 -5 -14 -8 -22 -8 -8 0 -28 -6 -45 -14 -18 -7
-52 -21 -77 -29 -25 -9 -58 -22 -75 -28 -16 -7 -32 -13 -35 -13 -11 -2 -146
-58 -160 -67 -8 -5 -22 -12 -30 -15 -8 -3 -23 -10 -32 -15 -10 -5 -25 -9 -33
-9 -8 0 -15 -4 -15 -10 0 -5 -5 -10 -11 -10 -6 0 -59 -24 -118 -54 -95 -47
-149 -76 -256 -136 -50 -28 -166 -100 -240 -149 -38 -25 -77 -50 -86 -56 -29
-17 -144 -98 -149 -104 -3 -4 -32 -26 -65 -51 -33 -24 -66 -50 -75 -56 -127
-104 -181 -150 -268 -229 -104 -96 -292 -286 -292 -296 0 -5 -7 -9 -15 -9 -8
0 -15 -4 -15 -8 0 -5 -17 -27 -37 -49 -21 -23 -60 -69 -88 -103 -27 -34 -62
-74 -78 -90 -15 -16 -27 -33 -27 -39 0 -6 -3 -11 -7 -11 -5 0 -19 -16 -32 -35
-21 -31 -39 -55 -72 -93 -6 -7 -58 -84 -115 -170 -57 -86 -107 -162 -112 -168
-8 -12 -17 -26 -92 -159 -32 -55 -64 -113 -73 -130 -35 -68 -67 -135 -66 -141
0 -4 -3 -10 -8 -13 -7 -5 -35 -57 -38 -71 0 -3 -12 -30 -27 -60 -14 -30 -38
-84 -52 -120 -15 -36 -31 -74 -36 -85 -19 -41 -68 -175 -64 -175 2 0 -4 -17
-15 -37 -10 -21 -19 -40 -18 -43 0 -3 -14 -50 -30 -105 -57 -184 -73 -240 -77
-265 -3 -14 -5 -25 -6 -25 -1 0 -4 -11 -6 -24 -2 -14 -11 -50 -19 -80 -8 -31
-17 -70 -20 -88 -3 -18 -12 -63 -20 -100 -12 -57 -14 -207 -12 -948 1 -484 6
-891 10 -905 4 -14 14 -59 22 -100 9 -41 31 -136 51 -210 19 -74 37 -144 39
-156 13 -58 119 -364 175 -504 22 -55 27 -67 82 -190 62 -136 165 -337 186
-362 9 -10 12 -18 8 -18 -4 0 2 -13 13 -29 12 -16 21 -34 21 -40 0 -6 4 -11 8
-11 5 0 18 -20 30 -44 12 -24 56 -94 97 -156 41 -62 75 -117 75 -121 0 -5 4
-9 8 -9 4 0 16 -14 26 -32 19 -31 39 -58 64 -84 7 -8 11 -14 7 -14 -3 0 8 -15
24 -32 17 -18 31 -36 31 -40 0 -4 6 -13 13 -20 7 -7 30 -35 52 -63 69 -86 98
-120 178 -209 114 -126 342 -349 463 -453 119 -101 262 -213 274 -213 5 0 10
-4 10 -8 0 -4 12 -15 28 -24 24 -14 42 -28 89 -68 7 -5 14 -10 17 -10 3 0 34
-20 70 -44 93 -64 226 -146 237 -146 5 0 9 -4 9 -9 0 -5 8 -11 18 -14 9 -3 46
-22 82 -42 105 -59 396 -206 403 -203 1 0 22 -8 47 -20 115 -52 501 -193 570
-207 8 -2 65 -17 125 -33 102 -28 226 -58 285 -68 14 -3 54 -11 90 -19 52 -11
232 -14 925 -14 570 0 875 3 905 10 25 6 56 13 70 15 129 24 363 81 445 109
22 7 67 21 100 31 33 9 66 22 73 27 6 5 12 7 12 4 0 -5 58 12 100 30 8 3 20 7
25 8 13 4 115 43 140 55 11 5 47 20 80 34 33 13 87 37 120 52 33 15 62 28 65
29 16 4 201 98 205 105 3 5 19 11 35 15 17 4 30 10 30 14 0 5 19 16 43 27 23
10 44 21 47 24 3 3 39 25 80 49 81 48 257 159 277 176 7 5 19 16 27 23 8 6 20
12 26 12 5 0 10 4 10 9 0 5 8 12 18 15 10 4 27 14 38 24 10 10 35 28 54 42 19
13 37 27 40 30 3 3 25 21 50 40 58 44 189 154 242 203 23 20 45 37 50 37 4 0
8 7 8 15 0 8 4 15 9 15 19 0 320 311 417 430 16 19 31 37 34 40 3 3 41 50 84
105 42 55 83 108 91 117 8 9 47 65 87 125 40 59 75 110 78 113 8 8 28 41 47
77 9 18 20 33 25 33 4 0 8 4 8 10 0 5 17 38 38 72 117 192 252 467 345 703 30
77 58 149 62 160 4 11 9 25 10 30 2 6 16 51 33 100 52 155 134 460 147 545 2
14 9 50 15 80 13 65 16 82 30 175 5 39 12 85 15 102 3 18 8 57 11 85 3 29 7
64 10 78 25 158 25 847 -1 1005 -3 17 -7 53 -9 80 -11 126 -69 454 -104 590
-6 22 -14 54 -17 70 -8 39 -13 60 -15 60 -1 0 -3 7 -5 15 -7 32 -57 198 -76
255 -45 132 -92 262 -104 290 -7 17 -21 48 -31 70 -10 22 -18 42 -18 45 -1 3
-14 34 -31 70 -16 36 -30 67 -30 70 -1 8 -131 263 -166 327 -18 32 -36 60 -40
61 -5 2 -9 12 -9 23 0 10 -4 19 -10 19 -5 0 -12 11 -16 25 -3 14 -10 25 -15
25 -5 0 -9 4 -9 10 0 5 -17 36 -37 67 -21 32 -42 66 -48 75 -30 50 -139 203
-146 206 -5 2 -9 8 -9 13 0 5 -33 51 -72 102 -101 128 -98 124 -145 176 -23
25 -43 49 -43 52 -1 23 -366 388 -520 519 -116 99 -212 176 -260 210 -19 13
-37 27 -40 31 -8 10 -323 221 -340 227 -8 3 -24 13 -35 22 -11 10 -37 26 -57
37 -20 10 -71 37 -112 61 -42 23 -79 43 -83 43 -5 1 -19 9 -33 18 -30 21 -157
81 -170 81 -6 0 -10 4 -10 8 0 5 -15 14 -32 20 -18 6 -85 33 -148 60 -63 28
-126 55 -140 60 -53 21 -145 54 -155 56 -5 1 -14 4 -20 8 -5 3 -35 13 -65 23
-30 9 -84 26 -120 37 -36 11 -78 23 -95 28 -95 26 -146 40 -167 45 -28 6 -94
21 -128 29 -35 9 -299 57 -335 62 -16 2 -47 6 -67 9 -69 9 -112 14 -183 21
-38 3 -86 8 -105 10 -40 6 -657 14 -662 9z"/>
</g>
</svg>
